# Blender 3.6.1
# www.blender.org
mtllib small_rock.mtl
o Icosphere.021_Material.019_0
v 2.652225 0.437435 -9.255198
v 2.832541 0.629874 -9.117271
v 2.578255 0.629874 -9.441556
v 3.263573 0.302066 -9.038110
v 2.821749 0.138841 -9.425148
v 3.636137 0.115343 -9.321323
v 2.944391 0.016931 -9.849407
v 2.890235 0.269990 -10.212700
v 3.649355 0.268593 -10.286963
v 2.820514 1.060078 -10.339809
v 2.926517 0.649499 -10.503078
v 2.890235 0.269990 -10.212700
v 2.926517 0.649499 -10.503078
v 3.265571 1.060078 -10.505773
v 3.453927 1.246910 -10.440474
v 3.708734 1.039499 -10.351066
v 3.265571 1.060078 -10.505773
v 3.265571 1.060078 -10.505773
v 3.148527 1.203798 -10.409029
v 3.259629 1.415360 -10.253472
v 3.453927 1.246910 -10.440474
v 3.148527 1.203798 -10.409029
v 3.625776 1.420708 -10.230786
v 3.625776 1.420708 -10.230786
v 3.899562 1.334505 -10.103658
v 3.537625 1.664463 -10.097916
v 3.259629 1.415360 -10.253472
v 4.027139 1.433863 -9.851645
v 4.129699 1.039499 -9.912773
v 4.092502 1.413732 -9.470444
v 3.894716 1.668792 -9.750511
v 3.655030 1.713617 -9.868070
v 3.636137 1.762396 -9.459408
v 3.894716 1.668792 -9.750511
v 3.307696 1.702677 -9.849408
v 3.537625 1.664463 -10.097916
v 2.986200 1.359284 -9.205555
v 3.211227 1.465370 -9.129763
v 3.073114 1.608697 -9.459408
v 3.317954 1.673920 -9.213181
v 2.570415 1.039499 -9.849407
v 2.729189 1.039499 -9.375208
v 2.856137 1.397642 -9.849408
v 2.856137 1.397642 -9.849408
v 2.570415 1.039499 -9.849407
v 2.856137 1.397642 -9.849408
v 2.820514 1.060078 -10.339809
v 2.578255 0.629874 -9.441556
v 2.571065 0.299554 -9.849407
v 3.636137 1.429500 -9.087976
v 3.636137 1.429500 -9.087976
v 3.623181 1.052011 -8.977773
v 3.943970 1.039500 -9.186860
v 3.674270 0.649500 -8.985112
v 3.223753 1.052011 -8.933186
v 4.137511 0.649499 -9.372914
v 3.601600 0.335546 -9.076792
v 3.636137 0.115343 -9.321323
v 4.023092 0.269379 -9.462390
v 3.601600 0.335546 -9.076792
v 4.073688 0.273897 -9.840258
v 4.023092 0.269379 -9.462390
v 4.247064 0.413495 -9.598454
v 4.247064 0.413495 -9.598454
v 3.649355 0.268593 -10.286963
v 3.941941 0.649499 -10.187755
v 4.073688 0.273897 -9.840258
v 4.247064 0.413495 -9.598454
v 4.092502 1.413732 -9.470444
v 2.821749 0.138841 -9.425148
v 2.652225 0.437435 -9.255198
v 2.821749 0.138841 -9.425148
v 3.263573 0.302066 -9.038110
v 2.944391 0.016931 -9.849407
v 2.926517 0.649499 -10.503078
v 3.797625 1.594505 -10.010511
v 3.655030 1.713617 -9.868070
v 3.870715 1.650375 -9.238419
v 4.092502 1.413732 -9.470444
v 3.073114 1.608697 -9.459408
v 3.317954 1.673920 -9.213181
v 3.870715 1.650375 -9.238419
v 3.636137 1.762396 -9.459408
v 3.870715 1.650375 -9.238419
v 3.623181 1.052011 -8.977773
v 3.337451 0.649500 -8.848598
v 3.223753 1.052011 -8.933186
v 3.337451 0.649500 -8.848598
v 3.263573 0.302066 -9.038110
v 4.129699 1.039499 -9.912773
vn -0.7494 -0.2762 0.6018
vn -0.6051 -0.0627 0.7937
vn -0.9421 0.0055 0.3354
vn -0.1249 -0.5913 0.7967
vn -0.4988 -0.7826 0.3723
vn 0.2514 -0.9055 0.3420
vn -0.2283 -0.9583 -0.1717
vn -0.5033 -0.6042 -0.6177
vn 0.3229 -0.6416 -0.6958
vn -0.6741 0.3404 -0.6555
vn -0.4734 -0.1996 -0.8579
vn -0.5034 -0.6042 -0.6177
vn 0.0060 0.1787 -0.9839
vn 0.1660 0.4329 -0.8860
vn 0.5014 0.0866 -0.8609
vn -0.2437 0.5545 -0.7957
vn -0.2953 0.7225 -0.6251
vn -0.2436 0.5545 -0.7957
vn 0.3550 0.5361 -0.7659
vn 0.3550 0.5360 -0.7659
vn 0.6595 0.3314 -0.6747
vn 0.0355 0.8081 -0.5880
vn 0.8176 0.4536 -0.3547
vn 0.9246 0.1310 -0.3577
vn 0.8754 0.3940 0.2800
vn 0.5809 0.7945 -0.1772
vn 0.2239 0.9286 -0.2959
vn 0.1396 0.9695 0.2012
vn 0.5808 0.7945 -0.1772
vn -0.3299 0.9155 -0.2302
vn -0.6741 0.4799 0.5616
vn -0.3331 0.4952 0.8024
vn -0.5961 0.7915 0.1352
vn -0.2697 0.7776 0.5679
vn -0.9365 0.3223 -0.1378
vn -0.8089 0.3624 0.4630
vn -0.6971 0.6988 -0.1603
vn -0.9366 0.3223 -0.1378
vn -0.8838 -0.4225 -0.2008
vn 0.2688 0.4181 0.8677
vn 0.2689 0.4181 0.8677
vn 0.3309 0.2040 0.9213
vn 0.6704 0.0951 0.7358
vn 0.4516 -0.1643 0.8770
vn -0.2556 0.2033 0.9452
vn 0.8481 -0.0813 0.5235
vn 0.3632 -0.5324 0.7646
vn 0.2514 -0.9054 0.3420
vn 0.5711 -0.7096 0.4127
vn 0.6568 -0.6756 -0.3350
vn 0.9323 -0.3553 0.0684
vn 0.3229 -0.6415 -0.6958
vn 0.7010 -0.1143 -0.7039
vn 0.6568 -0.6756 -0.3351
vn 0.9322 -0.3553 0.0684
vn -0.4988 -0.7827 0.3723
vn -0.1250 -0.5913 0.7967
vn -0.2283 -0.9583 -0.1718
vn 0.5255 0.6374 -0.5635
vn 0.5224 0.6363 0.5676
vn -0.5961 0.7914 0.1352
vn -0.2698 0.7776 0.5680
vn 0.5223 0.6364 0.5676
vn -0.0513 -0.1480 0.9877
vn -0.0513 -0.1481 0.9876
vn 0.9246 0.1309 -0.3577
vt 0.333246 0.685044
vt 0.340065 0.712329
vt 0.359585 0.678903
vt 0.548748 0.553077
vt 0.540200 0.611783
vt 0.589379 0.550831
vt 0.574203 0.635570
vt 0.599920 0.662918
vt 0.657528 0.618267
vt 0.709873 0.092343
vt 0.672212 0.116254
vt 0.675321 0.163232
vt 0.629798 0.677790
vt 0.684895 0.079242
vt 0.368486 0.861717
vt 0.375509 0.893337
vt 0.392476 0.854344
vt 0.943610 0.226364
vt 0.929409 0.231236
vt 0.931562 0.253611
vt 0.956770 0.244660
vt 0.703324 0.073749
vt 0.961080 0.273824
vt 0.340588 0.876556
vt 0.335214 0.905831
vt 0.317142 0.866570
vt 0.352518 0.851178
vt 0.313378 0.923545
vt 0.346605 0.945506
vt 0.298679 0.949838
vt 0.293182 0.909278
vt 0.946060 0.310776
vt 0.923680 0.344532
vt 0.959916 0.331588
vt 0.915971 0.294812
vt 0.947840 0.285005
vt 0.403475 0.748572
vt 0.405315 0.774002
vt 0.435395 0.755273
vt 0.425279 0.787342
vt 0.413888 0.677790
vt 0.388620 0.709032
vt 0.439702 0.714645
vt 0.765164 0.090569
vt 0.753646 0.122633
vt 0.876945 0.266578
vt 0.897813 0.217914
vt 0.763059 0.177943
vt 0.713797 0.183269
vt 0.393745 0.809445
vt 0.420158 0.474767
vt 0.395894 0.445777
vt 0.371568 0.474409
vt 0.362185 0.424618
vt 0.360795 0.767301
vt 0.325215 0.471029
vt 0.575502 0.533265
vt 0.310275 0.405063
vt 0.298128 0.444832
vt 0.338090 0.405146
vt 0.657528 0.557951
vt 0.628893 0.534012
vt 0.293277 0.473724
vt 0.656545 0.527671
vt 0.440987 0.929078
vt 0.396019 0.936154
vt 0.411210 0.981687
vt 0.384980 1.000000
vt 0.382508 0.519542
vt 0.731287 0.216753
vt 0.765164 0.202980
vt 0.313635 0.681579
vt 0.301979 0.738941
vt 0.688443 0.202889
vt 0.437453 0.851178
vt 0.312287 0.891977
vt 0.300757 0.884741
vt 0.931527 0.372374
vt 0.961080 0.359788
vt 0.875920 0.313595
vt 0.884034 0.347370
vt 0.416010 0.831263
vt 0.439702 0.807542
vt 0.420158 0.509674
vt 0.356800 0.798661
vt 0.383590 0.397578
vt 0.416860 0.419118
vt 0.321025 0.765100
vt 0.353294 0.380492
vt 0.335267 0.519310
s 1
usemtl Material.019
f 1/1/1 2/2/2 3/3/3
f 4/4/4 5/5/5 6/6/6
f 5/5/5 7/7/7 6/6/6
f 7/7/7 8/8/8 9/9/9
f 10/10/10 11/11/11 12/12/12
f 9/9/9 8/8/8 13/13/11
f 10/10/10 14/14/13 11/11/11
f 15/15/14 16/16/15 17/17/13
f 18/18/13 19/19/16 20/20/17
f 21/21/14 18/18/13 20/20/17
f 10/10/10 22/22/18 14/14/13
f 20/20/17 23/23/19 21/21/14
f 15/15/14 24/24/20 16/16/15
f 24/24/20 25/25/21 16/16/15
f 26/26/22 24/24/20 27/27/17
f 25/25/21 28/28/23 29/29/24
f 29/29/24 28/28/23 30/30/25
f 28/28/23 31/31/26 30/30/25
f 32/32/27 33/33/28 34/34/29
f 32/32/27 35/35/30 33/33/28
f 35/35/30 32/32/27 36/36/22
f 35/35/30 36/36/22 20/20/17
f 37/37/31 38/38/32 39/39/33
f 39/39/33 38/38/32 40/40/34
f 41/41/35 42/42/36 43/43/37
f 44/44/37 10/10/10 45/45/38
f 46/46/37 20/20/17 47/47/10
f 48/48/3 45/45/38 49/49/39
f 3/3/3 42/42/36 41/41/35
f 3/3/3 2/2/2 42/42/36
f 40/40/34 38/38/32 50/50/40
f 51/51/41 52/52/42 53/53/43
f 52/52/42 54/54/44 53/53/43
f 38/38/32 37/37/31 55/55/45
f 56/56/46 53/53/43 54/54/44
f 6/6/6 57/57/47 4/4/4
f 58/58/48 59/59/49 60/60/47
f 61/61/50 62/62/49 6/6/6
f 56/56/46 59/59/49 63/63/51
f 64/64/51 62/62/49 61/61/50
f 65/65/52 66/66/53 67/67/54
f 68/68/55 67/67/54 29/29/24
f 67/67/54 66/66/53 29/29/24
f 66/66/53 65/65/52 16/16/15
f 69/69/25 53/53/43 56/56/46
f 20/20/17 19/19/16 47/47/10
f 49/49/39 70/70/56 71/71/1
f 49/49/39 71/71/1 48/48/3
f 2/2/2 1/1/1 72/72/56
f 2/2/2 72/72/56 73/73/57
f 70/70/56 49/49/39 12/12/12
f 70/70/56 12/12/12 74/74/58
f 61/61/50 6/6/6 7/7/7
f 61/61/50 7/7/7 9/9/9
f 10/10/10 12/12/12 49/49/39
f 10/10/10 49/49/39 45/45/38
f 65/65/52 75/75/11 17/17/13
f 65/65/52 17/17/13 16/16/15
f 24/24/20 76/76/59 28/28/23
f 24/24/20 28/28/23 25/25/21
f 26/26/22 77/77/27 76/76/59
f 26/26/22 76/76/59 24/24/20
f 66/66/53 16/16/15 25/25/21
f 66/66/53 25/25/21 29/29/24
f 31/31/26 28/28/23 76/76/59
f 31/31/26 76/76/59 77/77/27
f 33/33/28 78/78/60 79/79/25
f 33/33/28 79/79/25 34/34/29
f 35/35/30 80/80/61 81/81/62
f 35/35/30 81/81/62 33/33/28
f 35/35/30 20/20/17 46/46/37
f 35/35/30 46/46/37 80/80/61
f 39/39/33 43/43/37 42/42/36
f 39/39/33 42/42/36 37/37/31
f 2/2/2 55/55/45 37/37/31
f 2/2/2 37/37/31 42/42/36
f 82/82/63 83/83/28 40/40/34
f 82/82/63 40/40/34 50/50/40
f 51/51/41 53/53/43 69/69/25
f 51/51/41 69/69/25 84/84/63
f 38/38/32 55/55/45 85/85/42
f 38/38/32 85/85/42 50/50/40
f 86/86/64 54/54/44 52/52/42
f 86/86/64 52/52/42 87/87/45
f 55/55/45 2/2/2 73/73/57
f 55/55/45 73/73/57 88/88/65
f 54/54/44 86/86/64 89/89/4
f 54/54/44 89/89/4 60/60/47
f 56/56/46 54/54/44 60/60/47
f 56/56/46 60/60/47 59/59/49
f 90/90/66 69/69/25 56/56/46
f 90/90/66 56/56/46 63/63/51
